<svg width="108" height="48" viewBox="0 0 108 48" fill="none" xmlns="http://www.w3.org/2000/svg">
<path d="M18.6667 30.6667C26.0305 30.6667 32 24.6971 32 17.3333C32 9.96954 26.0305 4 18.6667 4H0V30.6667H18.6667Z" fill="#D920AE"/>
<path d="M0 4L32 44H10.6667L0 30.6667V4Z" fill="#87DAFF"/>
<path d="M21.1488 30.436C20.3446 30.5875 19.5149 30.6667 18.6667 30.6667H0V4L21.1488 30.436Z" fill="#0E8FFF"/>
<path d="M48 34V13H56.61C58.81 13 60.52 13.63 61.74 14.89C62.96 16.15 63.57 17.72 63.57 19.6C63.57 21.06 63.23 22.33 62.55 23.41C61.89 24.49 60.93 25.28 59.67 25.78L63.87 33.7V34H59.55L55.65 26.38H51.9V34H48ZM51.9 22.66H56.37C57.33 22.66 58.1 22.42 58.68 21.94C59.28 21.44 59.58 20.66 59.58 19.6C59.58 18.6 59.28 17.87 58.68 17.41C58.1 16.93 57.33 16.69 56.37 16.69H51.9V22.66Z" fill="black"/>
<path d="M77.6372 32.14C76.3772 33.56 74.6472 34.27 72.4472 34.27C70.2472 34.27 68.5172 33.56 67.2572 32.14C65.9972 30.72 65.3672 29 65.3672 26.98V25.33C65.3672 23.31 65.9972 21.59 67.2572 20.17C68.5172 18.75 70.2472 18.04 72.4472 18.04C74.6472 18.04 76.3772 18.75 77.6372 20.17C78.8972 21.59 79.5272 23.31 79.5272 25.33V26.98C79.5272 29 78.8972 30.72 77.6372 32.14ZM69.1172 26.98C69.1172 28.04 69.3972 28.93 69.9572 29.65C70.5372 30.35 71.3672 30.7 72.4472 30.7C73.5272 30.7 74.3472 30.35 74.9072 29.65C75.4872 28.93 75.7772 28.04 75.7772 26.98V25.33C75.7772 24.27 75.4872 23.39 74.9072 22.69C74.3472 21.97 73.5272 21.61 72.4472 21.61C71.3672 21.61 70.5372 21.97 69.9572 22.69C69.3972 23.39 69.1172 24.27 69.1172 25.33V26.98Z" fill="black"/>
<path d="M93.604 32.14C92.344 33.56 90.614 34.27 88.414 34.27C86.214 34.27 84.484 33.56 83.224 32.14C81.964 30.72 81.334 29 81.334 26.98V25.33C81.334 23.31 81.964 21.59 83.224 20.17C84.484 18.75 86.214 18.04 88.414 18.04C90.614 18.04 92.344 18.75 93.604 20.17C94.864 21.59 95.494 23.31 95.494 25.33V26.98C95.494 29 94.864 30.72 93.604 32.14ZM85.084 26.98C85.084 28.04 85.364 28.93 85.924 29.65C86.504 30.35 87.334 30.7 88.414 30.7C89.494 30.7 90.314 30.35 90.874 29.65C91.454 28.93 91.744 28.04 91.744 26.98V25.33C91.744 24.27 91.454 23.39 90.874 22.69C90.314 21.97 89.494 21.61 88.414 21.61C87.334 21.61 86.504 21.97 85.924 22.69C85.364 23.39 85.084 24.27 85.084 25.33V26.98Z" fill="black"/>
<path d="M103.241 34C102.041 34 101.091 33.63 100.391 32.89C99.7108 32.15 99.3708 31.14 99.3708 29.86V21.76H97.0008V18.31H99.4908V14.71H103.121V18.31H106.421V21.76H103.121V29.14C103.121 29.66 103.221 30.03 103.421 30.25C103.621 30.45 103.981 30.55 104.501 30.55H107.081V34H103.241Z" fill="black"/>
</svg>
